<?xml version="1.0" encoding="utf-8"?><svg xmlns="http://www.w3.org/2000/svg" xmlns:xlink="http://www.w3.org/1999/xlink" width="1536" height="754" preserveAspectRatio="xMidYMid" viewBox="0 0 1536 754" style="z-index:1;margin-right:-2px;display:block;background-repeat-y:initial;background-repeat-x:initial;background-color:rgb(255, 255, 255);animation-play-state:paused" ><g transform="translate(768,377) scale(1,1) translate(-768,-377)" style="transform:matrix(1, 0, 0, 1, 0, 0);animation-play-state:paused" ><linearGradient id="lg-0.711589213566314" x1="0" x2="1" y1="0" y2="0" style="animation-play-state:paused" ><stop stop-color="#ff00ff" offset="0" style="animation-play-state:paused" ></stop>

  
<stop stop-color="#00ffff" offset="1" style="animation-play-state:paused" ></stop></linearGradient>
<path d="M 0 0 L 0 650.211 Q 153.6 671.761 307.2 642.54 T 614.4 575.109 T 921.6 405.211 T 1228.8 429.818 T 1536 375.294 L 1536 0 Z" fill="url(#lg-0.711589213566314)" opacity="0.4" style="opacity:0.4;animation-play-state:paused" ></path>
<path d="M 0 0 L 0 658.047 Q 153.6 641.063 307.2 616.769 T 614.4 515.767 T 921.6 451.73 T 1228.8 417.871 T 1536 301.609 L 1536 0 Z" fill="url(#lg-0.711589213566314)" opacity="0.4" style="opacity:0.4;animation-play-state:paused" ></path>
<path d="M 0 0 L 0 679.704 Q 153.6 676.528 307.2 641.716 T 614.4 521.503 T 921.6 502.17 T 1228.8 427.05 T 1536 324.887 L 1536 0 Z" fill="url(#lg-0.711589213566314)" opacity="0.4" style="opacity:0.4;animation-play-state:paused" ></path>
<path d="M 0 0 L 0 635.643 Q 153.6 696.068 307.2 661.614 T 614.4 569.167 T 921.6 429.715 T 1228.8 377.185 T 1536 309.149 L 1536 0 Z" fill="url(#lg-0.711589213566314)" opacity="0.4" style="opacity:0.4;animation-play-state:paused" ></path>
<path d="M 0 0 L 0 658.764 Q 153.6 681.995 307.2 649.932 T 614.4 586.685 T 921.6 420.815 T 1228.8 346.763 T 1536 261.645 L 1536 0 Z" fill="url(#lg-0.711589213566314)" opacity="0.4" style="opacity:0.4;animation-play-state:paused" ></path></g></svg>